<?xml version="1.0" standalone="no"?>
<!DOCTYPE svg PUBLIC "-//W3C//DTD SVG 20010904//EN"
 "http://www.w3.org/TR/2001/REC-SVG-20010904/DTD/svg10.dtd">
<svg version="1.0" xmlns="http://www.w3.org/2000/svg"
 width="1024.000000pt" height="1024.000000pt" viewBox="0 0 1024.000000 1024.000000"
 preserveAspectRatio="xMidYMid meet">

<g transform="translate(0.000000,1024.000000) scale(0.100000,-0.100000)"
fill="#000000" stroke="none">
<path d="M983 5588 c-323 -325 -338 -345 -309 -404 9 -16 153 -166 321 -334
l305 -305 0 115 0 114 -221 222 -221 221 221 224 221 223 0 113 c0 62 -3 113
-8 113 -4 0 -143 -136 -309 -302z"/>
<path d="M8960 5775 l0 -120 217 -217 218 -218 -218 -218 -217 -217 0 -115 0
-115 315 315 c307 307 315 317 315 355 0 38 -8 48 -315 355 l-315 315 0 -120z"/>
<path d="M4505 5846 c-127 -32 -238 -119 -298 -233 -58 -112 -73 -184 -70
-353 1 -104 6 -138 27 -203 47 -142 124 -235 236 -285 89 -40 149 -52 255 -48
193 8 325 88 396 241 36 77 40 96 46 233 l6 112 -232 0 -231 0 0 -75 0 -75
140 0 140 0 -6 -27 c-25 -115 -65 -178 -135 -214 -101 -51 -249 -39 -330 26
-63 51 -111 152 -120 250 -25 304 89 495 296 495 117 0 223 -64 263 -158 l21
-49 96 -2 c52 -1 95 2 95 7 0 19 -34 107 -58 151 -94 167 -330 259 -537 207z"/>
<path d="M6882 5835 c-33 -28 -44 -72 -30 -122 17 -61 120 -92 193 -58 38 19
55 51 55 106 0 33 -6 47 -31 70 -28 26 -38 29 -94 29 -53 0 -68 -4 -93 -25z"/>
<path d="M1550 5290 l0 -550 218 0 c152 0 238 5 287 15 194 41 305 155 350
359 21 93 16 300 -9 377 -58 184 -165 288 -342 334 -44 11 -115 15 -281 15
l-223 0 0 -550z m477 368 c74 -27 143 -97 175 -175 20 -51 23 -76 23 -198 0
-130 -2 -144 -26 -195 -34 -74 -76 -120 -136 -150 -43 -22 -64 -25 -190 -28
l-143 -4 0 386 0 386 120 0 c98 0 130 -4 177 -22z"/>
<path d="M8580 5638 l0 -202 -32 33 c-53 55 -103 74 -200 79 -188 10 -292 -75
-332 -271 -19 -92 -20 -148 -2 -248 25 -140 74 -216 171 -267 44 -23 62 -26
150 -27 109 0 158 16 218 73 l27 26 0 -47 0 -47 85 0 85 0 0 550 0 550 -85 0
-85 0 0 -202z m-88 -283 c63 -42 83 -93 83 -210 0 -124 -21 -179 -86 -222 -34
-23 -53 -28 -104 -28 -126 0 -199 92 -198 250 0 121 46 203 128 233 46 17 133
6 177 -23z"/>
<path d="M2775 5532 c-106 -37 -181 -113 -220 -222 -26 -72 -31 -228 -10 -305
34 -127 113 -216 230 -261 72 -27 210 -25 287 5 71 27 151 98 184 162 l24 49
-93 0 c-86 0 -95 -2 -116 -24 -56 -60 -172 -76 -252 -36 -42 22 -83 83 -93
140 l-6 35 280 -2 280 -3 0 90 c0 174 -63 286 -197 352 -57 28 -78 33 -157 35
-67 2 -104 -2 -141 -15z m241 -164 c34 -23 84 -106 84 -140 0 -17 -14 -18
-194 -18 l-194 0 7 33 c25 107 97 161 204 153 39 -3 70 -12 93 -28z"/>
<path d="M3290 5546 c0 -3 32 -92 71 -198 39 -106 100 -274 135 -373 36 -99
70 -192 76 -207 l10 -28 102 0 102 0 38 103 c169 452 256 689 256 700 0 4 -42
7 -94 7 l-95 0 -19 -52 c-11 -29 -57 -163 -102 -296 l-83 -244 -22 59 c-12 32
-57 165 -101 295 l-79 238 -97 0 c-54 0 -98 -2 -98 -4z"/>
<path d="M5483 5535 c-108 -35 -196 -116 -234 -214 -29 -74 -33 -257 -7 -341
51 -166 194 -262 376 -255 201 8 336 133 363 337 28 205 -54 384 -208 456 -48
22 -75 27 -153 29 -60 1 -110 -3 -137 -12z m172 -146 c117 -33 182 -213 131
-367 -33 -97 -90 -142 -183 -142 -95 0 -162 58 -190 163 -17 67 -17 109 2 182
23 86 50 123 109 151 58 27 74 29 131 13z"/>
<path d="M6020 5498 c10 -29 50 -141 90 -248 39 -107 97 -266 128 -352 l57
-158 107 0 106 0 10 28 c5 15 71 193 146 395 75 203 136 373 136 378 0 6 -39
9 -97 7 l-97 -3 -22 -70 c-28 -87 -175 -519 -179 -523 -1 -1 -31 82 -65 185
-35 103 -81 239 -103 301 l-39 112 -99 0 -98 0 19 -52z"/>
<path d="M6880 5145 l0 -405 90 0 90 0 0 405 0 405 -90 0 -90 0 0 -405z"/>
<path d="M7200 5145 l0 -405 90 0 90 0 0 266 c0 256 1 268 22 305 30 54 110
94 174 86 57 -6 93 -31 119 -83 18 -36 20 -62 23 -306 l3 -268 85 0 84 0 0
293 c0 270 -2 298 -21 355 -22 66 -73 122 -135 148 -44 19 -167 18 -232 -1
-29 -9 -68 -30 -87 -46 l-35 -31 0 46 0 46 -90 0 -90 0 0 -405z"/>
</g>
</svg>
